<?xml version="1.0" encoding="UTF-8"?>
<svg xmlns="http://www.w3.org/2000/svg" xmlns:xlink="http://www.w3.org/1999/xlink" width="20px" height="20px" viewBox="0 0 20 20" version="1.1">
<g id="surface1">
<path style=" stroke:none;fill-rule:nonzero;fill:rgb(100%,0%,30.980392%);fill-opacity:1;" d="M 14.3125 7.21875 C 15.601562 8.140625 17.175781 8.683594 18.878906 8.683594 L 18.878906 5.398438 C 18.554688 5.398438 18.234375 5.367188 17.917969 5.296875 L 17.917969 7.886719 C 16.21875 7.886719 14.640625 7.34375 13.355469 6.417969 L 13.355469 13.125 C 13.355469 16.480469 10.644531 19.199219 7.304688 19.199219 C 6.054688 19.199219 4.894531 18.820312 3.933594 18.171875 C 5.03125 19.300781 6.566406 20 8.261719 20 C 11.605469 20 14.3125 17.28125 14.3125 13.925781 Z M 15.496094 3.902344 C 14.839844 3.183594 14.40625 2.253906 14.3125 1.222656 L 14.3125 0.800781 L 13.40625 0.800781 C 13.632812 2.109375 14.414062 3.226562 15.496094 3.902344 Z M 6.046875 15.597656 C 5.679688 15.113281 5.480469 14.523438 5.484375 13.917969 C 5.484375 12.382812 6.722656 11.136719 8.25 11.136719 C 8.535156 11.136719 8.820312 11.179688 9.089844 11.269531 L 9.089844 7.90625 C 8.773438 7.863281 8.453125 7.847656 8.132812 7.851562 L 8.132812 10.46875 C 7.863281 10.382812 7.578125 10.335938 7.292969 10.335938 C 5.765625 10.335938 4.523438 11.582031 4.523438 13.117188 C 4.523438 14.203125 5.144531 15.140625 6.046875 15.597656 Z M 6.046875 15.597656 "/>
<path style=" stroke:none;fill-rule:nonzero;fill:rgb(0%,0%,0%);fill-opacity:1;" d="M 13.355469 6.417969 C 14.640625 7.34375 16.21875 7.886719 17.917969 7.886719 L 17.917969 5.296875 C 16.96875 5.09375 16.128906 4.597656 15.496094 3.902344 C 14.414062 3.226562 13.632812 2.109375 13.40625 0.800781 L 11.019531 0.800781 L 11.019531 13.925781 C 11.015625 15.457031 9.777344 16.695312 8.25 16.695312 C 7.351562 16.695312 6.554688 16.265625 6.046875 15.597656 C 5.144531 15.140625 4.523438 14.199219 4.523438 13.117188 C 4.523438 11.582031 5.765625 10.335938 7.292969 10.335938 C 7.585938 10.335938 7.867188 10.382812 8.132812 10.46875 L 8.132812 7.851562 C 4.847656 7.921875 2.207031 10.613281 2.207031 13.925781 C 2.207031 15.578125 2.867188 17.078125 3.933594 18.171875 C 4.894531 18.820312 6.054688 19.199219 7.304688 19.199219 C 10.644531 19.199219 13.355469 16.480469 13.355469 13.125 Z M 13.355469 6.417969 "/>
<path style=" stroke:none;fill-rule:nonzero;fill:rgb(0%,94.901961%,91.764706%);fill-opacity:1;" d="M 17.917969 5.296875 L 17.917969 4.597656 C 17.0625 4.601562 16.222656 4.359375 15.496094 3.902344 C 16.140625 4.609375 16.984375 5.097656 17.917969 5.296875 Z M 13.40625 0.800781 C 13.382812 0.675781 13.367188 0.550781 13.355469 0.421875 L 13.355469 0 L 10.0625 0 L 10.0625 13.125 C 10.054688 14.65625 8.820312 15.894531 7.292969 15.894531 C 6.84375 15.894531 6.421875 15.789062 6.046875 15.597656 C 6.554688 16.265625 7.351562 16.695312 8.25 16.695312 C 9.777344 16.695312 11.015625 15.457031 11.019531 13.925781 L 11.019531 0.800781 Z M 8.132812 7.851562 L 8.132812 7.109375 C 7.859375 7.070312 7.582031 7.050781 7.304688 7.050781 C 3.960938 7.050781 1.25 9.769531 1.25 13.125 C 1.25 15.230469 2.316406 17.082031 3.933594 18.171875 C 2.867188 17.078125 2.207031 15.578125 2.207031 13.925781 C 2.207031 10.613281 4.847656 7.921875 8.132812 7.851562 Z M 8.132812 7.851562 "/>
</g>
</svg>
