<svg xmlns="http://www.w3.org/2000/svg" viewBox="0 0 236.88 166"><defs><style>.cls-1{fill:#a59e86;}.cls-2{fill:#a8bdff;}.cls-3{fill:#ffa8bd;}.cls-4{fill:#c3f68c;}</style></defs><g id="レイヤー_2" data-name="レイヤー 2"><g id="レイヤー_1-2" data-name="レイヤー 1"><g id="color"><path class="cls-1" d="M141.88,73.44a1.33,1.33,0,0,1-.28,0,1.17,1.17,0,0,1-.85-1.41c1.84-7.55.18-14.69-1.53-19.35a37.61,37.61,0,0,0-5-9.49,1.16,1.16,0,0,1,.42-1.84l.76-.31c2.38-.94,7.31-2.9,10.8-6.66a43.15,43.15,0,0,0,8.55-15c2.08-6.35,2.13-11.92.15-15.69A1.16,1.16,0,0,1,157,2.61,16.86,16.86,0,0,1,158.67,11,32.39,32.39,0,0,1,157,20.11a45,45,0,0,1-9.05,15.83c-3.55,3.81-8.29,5.88-11,7a44.8,44.8,0,0,1,4.47,8.94,40.29,40.29,0,0,1,2.28,9.52A32.26,32.26,0,0,1,143,72.55,1.16,1.16,0,0,1,141.88,73.44Z"/><ellipse class="cls-1" cx="131.74" cy="66.25" rx="2.98" ry="2.99"/><path class="cls-1" d="M131,96.13c.94,0,1.21,1,1.21,2.82v4.37c0,.5.11,1,.72,1s1.43.17,1.16.94a25,25,0,0,1-1.38,2.71,10,10,0,0,0-.55,4c0,1,.55,1.44,2.15.5S146,107.36,149,106s2.59,2.71,2.59,5v8.86c0,1.88,2.42,2.38,3.09,1.38s-.45-1.27-.61-1.11a.88.88,0,0,1-1.21-.16c-.39-.5-.22-1.22,1.15-1.39a2.49,2.49,0,0,1,2.81,2.61c-.11,1.71-.82,3.09-3.3,3.09a4.57,4.57,0,0,1-4.41-4.59v-9.52c0-1-.44-1.44-2-.66s-11.69,5.26-13.06,5.86-1.77,1.06-1.77,3v6.31c0,1.66-.55,2.22-1.21,2.22s-1.21-.56-1.21-2.38v-6.26c0-1.1-.78-.66-1.27-.38s-2.37,1-2.81,0,.55-1.6,1.65-2.27,1.76-.44,2-3,.28-2.71.44-4.37-.77-1.44-1.1-1.44-2.1.06-2.1-1.33,1.77-1.27,1.88-1.27.83.11,1.1-.17.22-2.26.22-2.82V98.12C129.86,96,131,96.13,131,96.13Z"/><path class="cls-1" d="M152.09.86A1.16,1.16,0,0,0,150.67,0a29.21,29.21,0,0,0-7.14,3A22.45,22.45,0,0,0,137.62,8c-3,3.69-5,7.82-6.83,11.81-2.36,5-4.59,9.81-8.75,13-.24,0-.71-.08-1.1-.14a19,19,0,0,0-11.08,1.12C102.94,14,91.45,2.13,77.44,1.16,76,28.56,87.81,38.46,97.51,42.78c-9.17,11.82-13.37,38,8.92,43.26a37.86,37.86,0,0,0,8.67,1.11c.8,0,1.59,0,2.35,0a40.73,40.73,0,0,0,12.06-1.58,19.82,19.82,0,0,0,11.13-7.93,1.17,1.17,0,0,0-.33-1.61,1.14,1.14,0,0,0-1.6.33c-3,4.58-8.12,7.28-15.52,8.15C117.12,85,117,81.1,117,80.47V75.64c-1.26-.15-2.11-1.58-2.32-2.42s.37-1.42,2.32-1.44V38.13a3.25,3.25,0,0,1,3.56-3.19h0c1.19.19,1.9.3,2.53-.07l.1-.06c4.76-3.52,7.14-8.62,9.67-14,1.8-3.86,3.67-7.86,6.52-11.32a23.71,23.71,0,0,1,11.87-7.2A1.16,1.16,0,0,0,152.09.86Zm-55.63,63c6.12-1.89,10-2.49,13.67,4.48C104.07,71.56,96.29,68.74,96.46,63.87Z"/><path class="cls-1" d="M168,119.33a4.93,4.93,0,0,1-.76,0,5.13,5.13,0,0,1-4.64-5.09,6.74,6.74,0,0,1,1.8-4.51,7.75,7.75,0,0,1,3.88-2.31,9.62,9.62,0,0,1,4.63.12,19.83,19.83,0,0,1,5,2.1,1.16,1.16,0,0,1-1.13,2c-3.23-1.83-5.91-2.5-8-2a5,5,0,0,0-3.91,4.58,2.48,2.48,0,0,0,.82,2,3.54,3.54,0,0,0,1.82.82,2.44,2.44,0,0,0,2.07-.56,1.69,1.69,0,0,0,.4-1.52,1.16,1.16,0,1,1,2.29-.35,4,4,0,0,1-1,3.5A4.51,4.51,0,0,1,168,119.33Z"/><path class="cls-1" d="M191.76,120.48c-2.49,0-4.91-1.76-8.58-4.43-1-.7-2-1.48-3.22-2.31a1.16,1.16,0,0,1,1.33-1.91c1.19.84,2.28,1.63,3.25,2.33,3.3,2.41,5.48,4,7.22,4a3.43,3.43,0,0,0,2.38-.7,2.12,2.12,0,0,0,.49-1.6,1.64,1.64,0,0,0-1.33-1.6.93.93,0,0,0-1,.28c-.08.12,0,.17,0,.2a1.16,1.16,0,1,1-2,1.19,2.47,2.47,0,0,1,.13-2.73,3.21,3.21,0,0,1,3.29-1.22,3.92,3.92,0,0,1,3.19,3.82,4.38,4.38,0,0,1-1.14,3.28A5.4,5.4,0,0,1,191.76,120.48Z"/><path class="cls-1" d="M203.72,98.29c-.83.5-.49,1.77,0,2.49s3.14,4.81,4.41,4-1.54-5-2-5.54S204.55,97.79,203.72,98.29Z"/><path class="cls-1" d="M214.7,126.24a12.51,12.51,0,0,1-7-1.8c-3.94-2.71-3.8-7.52-1.93-11.09,1.6-3,7.1-8.59,9.35-10.33,2.68-2.07,2-3.1,1.67-3.54a.75.75,0,0,0-.73-.27,1.18,1.18,0,0,0-.92.52s-.07.15.14.42a1.22,1.22,0,0,1-1.93,1.48,2.8,2.8,0,0,1-.44-2.86,3.5,3.5,0,0,1,2.91-2,3.13,3.13,0,0,1,3,1.3,3.84,3.84,0,0,1,.43,3.83,7.94,7.94,0,0,1-2.61,3c-2.08,1.61-7.3,6.93-8.68,9.54-1.28,2.42-1.74,6,1.16,8,3.06,2.11,8.46,1.14,8.51,1.13.66-.12,2.51-.38,2.73.56s-1.62,1.71-2.28,1.84A20.13,20.13,0,0,1,214.7,126.24Z"/><path class="cls-1" d="M225.12,99.42c.73.67.92,1.6.46,2.11s-1.36.39-2.14-.28a1.48,1.48,0,0,1-.4-2.1C223.51,98.64,224.39,98.76,225.12,99.42Z"/><path class="cls-1" d="M227.88,96.71c.78.61,1,1.49.51,2a1.73,1.73,0,0,1-2.19-.16,1.56,1.56,0,0,1-.51-2.11C226.15,95.93,227.09,96.1,227.88,96.71Z"/><path class="cls-1" d="M32.25,117.64a3.24,3.24,0,0,0-3.48-1,1.22,1.22,0,0,0,.56,2.37c.35-.09.81-.13,1,.13a1.18,1.18,0,0,1,.06,1.11,1.5,1.5,0,0,1-1.8.31c-.52-.2-1-.41-1.37-.61a10.57,10.57,0,0,0-3.81-1.18H23.3c-.45-.11-.52-.86-.52-1.39,0-1.58,0-3.69,0-6.59h0c0-1.47.51-1.63,1.39-1.63h1.15c.67,0,1.93-.28,1.93-1.22S26,106.7,25.35,106.7H24.11c-1.18,0-1.29-.55-1.29-1.89v-1.67c0-1,.43-1.31,1-1.31h1.3c.67,0,1.65-.28,1.65-1.22s-1-1.21-1.65-1.21H23.94c-.8,0-1.12-.5-1.12-1.68v-.87c0-.67-.28-1.77-1.21-1.77s-1.22,1.1-1.22,1.77V98c0,1.12-.42,1.4-1.14,1.4H16.76c-.67,0-1.55.54-1.55,1.21s.88,1.22,1.55,1.22H19.3a1,1,0,0,1,1.09,1v2.54c0,1.21-.55,1.29-1.79,1.29h-2c-.67,0-2,.17-2,1.22s1.37,1.22,2,1.22H18.8c1,0,1.59.12,1.59,1.52,0,2.89,0,5,0,6.57v.06h0c0,1.08-.34,1.31-1.1,1.35h0a6.64,6.64,0,0,0-3.63,1.24,4.1,4.1,0,0,0-1.56,3.31c0,2.84,1.62,4.54,4.35,4.54a3.9,3.9,0,0,0,3.84-3,9.58,9.58,0,0,0,.41-2h0c.1-.84.44-1.52,1.79-1.21a10.77,10.77,0,0,1,1.73.7,14.91,14.91,0,0,0,1.55.69,4.32,4.32,0,0,0,2.72.17,3.32,3.32,0,0,0,2.1-1.62A3.59,3.59,0,0,0,32.25,117.64ZM18.41,125.3c-1.16,0-1.93-.36-1.93-2.11a1.66,1.66,0,0,1,.64-1.39,4,4,0,0,1,1.9-.69c.57-.07,1.31,0,1.25,1C20.08,124.35,19.5,125.3,18.41,125.3Z"/><path class="cls-1" d="M70.11,100H64.49c-.94,0-1.49-.17-1.49-1.37V97c0-.67-.27-1.66-1.21-1.66s-1.21,1-1.21,1.66v1.15c0,1.4-.27,1.84-1.21,1.84H49.06c-.67,0-1.82.22-1.82,1.22s1.15,1.21,1.82,1.21h9.81c1.27,0,1.71.43,1.71,1.49v2.72c0,1.55-.67,1.27-1.44,1.44a4.23,4.23,0,0,0-3.74,4.26,4.56,4.56,0,0,0,4.51,4.59c.56,0,.56.11.56,1.33s-.44,5.59-1,6.92-1.88,1.16-2,.66.16-.77.66-.94a.93.93,0,0,0,.72-1c-.06-.55-.33-.88-.83-.88a2.94,2.94,0,0,0-2,.88,2.84,2.84,0,0,0-.55,2.44,3,3,0,0,0,1.08,1.7,2.83,2.83,0,0,0,4.32-1.09,23.17,23.17,0,0,0,2.15-7.64,60,60,0,0,0,.72-7.08c0-3.33-.61-4.27-.61-5.65V104c0-1.12.3-1.62,1.39-1.62h5.72c.67,0,1.93-.22,1.93-1.21S70.78,100,70.11,100Zm-10,14.44c-.94.06-2.09-.27-2.09-2.16,0-1.16.6-2.1,1.54-2s1.43.33,1.54,1.21S61,114.34,60.08,114.39Z"/><path class="cls-1" d="M103.88,105.33a10,10,0,0,0-5.49-1.18h-1c-1.45,0-1.48-.69-1.19-1.85l.16-.59h0l.38-1.42c.18-.65.19-1.61-.69-1.89s-1.48.61-1.65,1.26c-.06.24-.27,1-.55,2l0,.14c-.41,1.49-.6,2.32-1.94,2.32H90.29c-.67,0-2,0-2,1.22s1.32,1.22,2,1.22H91.5c.52,0,1,.09.63,1.37h0c-1.3,4.83-2.76,10.3-3.21,12.15a16.09,16.09,0,0,1-.79,2.57c-.48,1.1-.88,1.38-1,1.45-.6.26-1.4.36-1.71-.2a1,1,0,0,1-.06-.78c0-.08.13-.32.59-.44a1.22,1.22,0,0,0-.64-2.35,3.21,3.21,0,0,0-2.19,1.85,3.4,3.4,0,0,0,.18,2.9,3.2,3.2,0,0,0,2.08,1.57,4,4,0,0,0,.85.1,4.62,4.62,0,0,0,1.87-.43c1.82-.8,2.64-3.31,3.21-5.67.45-1.86,2-7.52,3.28-12.41.43-1.59,1.2-1.68,2.11-1.68h1.72c3.75,0,5.45.62,5.62,4.32.15,3.07.1,8.71,0,12.15-.11,1.2-.37,1-.66,1h-1c-.77,0-1.44,0-1.44.66s2.67,2,3.83,2.39a1,1,0,0,0,.3.09h.17a1.23,1.23,0,0,0,1.22-1.19c0-.43.21-10.55,0-15.25C106.31,108.17,105.47,106.38,103.88,105.33Z"/><path class="cls-1" d="M110,99.28c-1.36-1.2-2.47-2.12-3.39-1.36s.13,1.88,1.46,3.14c1.76,1.66,4.3,3.48,4.85,2.71S111.89,100.94,110,99.28Z"/><path class="cls-1" d="M93.43,135.7a.81.81,0,0,1-.79.8.83.83,0,0,1-.91-.8c0-.3-.07-1.84-.11-2.93,0,0,0-.91-.38-.28a12.16,12.16,0,0,1-.78,1.1,1,1,0,0,1-.72.34,1.15,1.15,0,0,1-.8-.39c-.23-.27-.58-.68-.85-1-.13-.17-.36-.34-.35.2,0,1,0,2.67,0,2.92a.93.93,0,0,1-.88.9h0c-.28,0-.76-.12-.84-.87-.06-.51,0-3.3,0-4.8v0c0-.47,0-.81,0-.94,0-.67.22-1.07.69-1.23a1.18,1.18,0,0,1,.25,0c.43,0,.77.37,1.16.82s.92,1.27,1.3,1.83a.34.34,0,0,0,.6,0,20.62,20.62,0,0,1,1.64-2.43,1.3,1.3,0,0,1,.79-.29.84.84,0,0,1,.54.18,1.44,1.44,0,0,1,.45,1.3c0,.13,0,.58,0,1.16v0C93.43,132.77,93.45,135.39,93.43,135.7Z"/><path class="cls-1" d="M97,136.51a2.17,2.17,0,0,1-2.15-2.11,2.67,2.67,0,0,1,1.53-2.78,2.93,2.93,0,0,1,3.48.87,5.36,5.36,0,0,1,.45,3.33.79.79,0,0,1-.88.83.63.63,0,0,1-.47-.23.45.45,0,0,0-.55-.15A2.63,2.63,0,0,1,97,136.51ZM97.8,133a1,1,0,0,0-1.36.91,1,1,0,0,0,1,1.16,1.22,1.22,0,0,0,1.1-.68A1,1,0,0,0,97.8,133Z"/><path class="cls-1" d="M103.87,130.57c.94,0,1.66.29,1.85.73a.76.76,0,0,1-.66,1.08c-.56,0-1-.4-1.36,0s.38.57.74.86a2.24,2.24,0,0,1,1,2.33c-.26,1-.85,1.33-2,1.31a2.08,2.08,0,0,1-1.84-.7c-.23-.3,0-1.4.88-1.2.6.13,1.26.35,1.38,0,.18-.46-.74-.69-1.18-1.1a1.94,1.94,0,0,1-.71-2A1.75,1.75,0,0,1,103.87,130.57Z"/><path class="cls-1" d="M110.72,138.35a1,1,0,0,1-.77-1c0-.15,0-.33,0-.49a.48.48,0,0,0-.48-.54,3,3,0,0,1-2.22-.88,3,3,0,0,1-.21-3.46c.66-.93,2.09-1,3-1s1.53,0,1.62,1.1-.08,4.6-.06,5.34S111.19,138.41,110.72,138.35Zm-2-5.61a1,1,0,0,0-.37,1.35,1.2,1.2,0,0,0,1.22.53c.4,0,.58-.17.58-.58s0-.66,0-1.06S109.2,132.49,108.74,132.74Z"/><path class="cls-1" d="M113.93,131.05c.62,0,.87.57.9,1.06s0,2.46.31,2.64,1.15.23,1.39-.28a12.66,12.66,0,0,0,.17-2.67c0-.5.36-.74.91-.69s.69.45.74,1.43c0,.81.24,3.54-1.71,3.94s-3.08-.22-3.38-1.74a8.53,8.53,0,0,1-.14-2.44C113.07,131.4,113.34,131.09,113.93,131.05Z"/><path class="cls-1" d="M121.33,131.1a2.25,2.25,0,0,1,2.47,1.1,1.49,1.49,0,0,1-.46,2.05,3.72,3.72,0,0,1-1.6.27c-.2,0-.3.11-.16.23a1.49,1.49,0,0,0,1.33.14.74.74,0,0,1,.78,1.07c-.19.35-.84.78-2.18.54-1.11-.19-2.07-.88-2.07-2.92A2.4,2.4,0,0,1,121.33,131.1Zm.24,1.37c-.41.16-.44.58-.24.74s1.3.06,1.18-.36A.68.68,0,0,0,121.57,132.47Z"/><path class="cls-1" d="M126.1,130.87a.8.8,0,0,1,.88.87c0,.33.16.4.4.22a3.26,3.26,0,0,1,1-.53c.76-.24,1.5-.12,1.64.49s-.17.9-1,1.13a2.34,2.34,0,0,0-1.74,1.64c-.19.66,0,1.63-.67,1.79-1,.28-1-.33-1.07-.85s-.09-2.79-.14-3.56S125.53,130.87,126.1,130.87Z"/><path class="cls-1" d="M132.69,136.51a2.17,2.17,0,0,1-2.15-2.11,2.67,2.67,0,0,1,1.53-2.78,2.93,2.93,0,0,1,3.48.87,5.29,5.29,0,0,1,.45,3.33.79.79,0,0,1-.87.83.63.63,0,0,1-.48-.23.44.44,0,0,0-.55-.15A2.61,2.61,0,0,1,132.69,136.51Zm.83-3.56a1,1,0,0,0-1.36.91,1,1,0,0,0,1,1.16,1.22,1.22,0,0,0,1.09-.68A1,1,0,0,0,133.52,133Z"/><path class="cls-1" d="M141,136.55c-.89,0-2.46-.06-3.12-1a2.82,2.82,0,0,1,.17-3.41,3.21,3.21,0,0,1,2.36-.9.49.49,0,0,0,.49-.5v-1.18a1.06,1.06,0,0,1,.83-1,.89.89,0,0,1,1,.92c0,.74.11,4.8,0,5.93S141.88,136.51,141,136.55Zm-.47-3.62a1.24,1.24,0,0,0-1.23.55,1,1,0,0,0,.4,1.35c.46.24,1.37.21,1.39-.25s0-.75,0-1.08S140.92,132.93,140.52,132.93Z"/><path class="cls-1" d="M146,131.1a2.24,2.24,0,0,1,2.46,1.1,1.48,1.48,0,0,1-.46,2.05,3.72,3.72,0,0,1-1.6.27c-.2,0-.3.11-.16.23a1.5,1.5,0,0,0,1.33.14.74.74,0,0,1,.78,1.07c-.19.35-.83.78-2.18.54-1.11-.19-2.07-.88-2.07-2.92A2.4,2.4,0,0,1,146,131.1Zm.23,1.37c-.41.16-.44.58-.23.74s1.29.06,1.17-.36A.68.68,0,0,0,146.26,132.47Z"/><path class="cls-1" d="M63.61,133.71H15a.83.83,0,0,1,0-1.66H63.61a.83.83,0,0,1,0,1.66Z"/><path class="cls-1" d="M76.56,133.71H67.74a.83.83,0,0,1,0-1.66h8.82a.83.83,0,0,1,0,1.66Z"/><path class="cls-1" d="M81.19,133.71H79.81a.83.83,0,0,1,0-1.66h1.38a.83.83,0,0,1,0,1.66Z"/><path class="cls-1" d="M221.8,133.71H170.93a.83.83,0,1,1,0-1.66H221.8a.83.83,0,0,1,0,1.66Z"/><path class="cls-1" d="M166.52,133.71h-8.93a.83.83,0,1,1,0-1.66h8.93a.83.83,0,0,1,0,1.66Z"/><path class="cls-1" d="M154.33,133.71H153a.83.83,0,1,1,0-1.66h1.37a.83.83,0,1,1,0,1.66Z"/><path class="cls-1" d="M22.71,138.22h38.8a.31.31,0,1,0,0-.61H22.71a.31.31,0,0,0,0,.61Z"/><path class="cls-1" d="M115.5,145.43a7.86,7.86,0,0,0-.94-1.3,7.65,7.65,0,0,0-1.18-1.08,7,7,0,0,0-1.58-.89,9.79,9.79,0,0,0-4.77-.62,14.53,14.53,0,0,0-4.56,1.28,25.64,25.64,0,0,0-2.79,1.55c-.82.52-1.61,1.07-2.6,1.75l-.92.63L94.92,146c-1.62-1-3.24-2-6.6-3.86s-5.4-2.58-7.45-2.77a8.65,8.65,0,0,0-1.61,0,6.8,6.8,0,0,0-1.77.43,7.82,7.82,0,0,0-1.93,1.07A6.32,6.32,0,0,0,73.75,143a4.63,4.63,0,0,0,.26,4.52,5.47,5.47,0,0,0,1.12,1.28,6.79,6.79,0,0,0,1.22.81,7.43,7.43,0,0,0,2.64.78,8.81,8.81,0,0,0,3.39-.4,15.78,15.78,0,0,0,4.23-2.26c1.13-.85,1.11-1.05.56-.88s-1.62.7-2.67,1.18a12.47,12.47,0,0,1-4.39,1.23,6.14,6.14,0,0,1-2.24-.31,5.73,5.73,0,0,1-2-1.09A3.54,3.54,0,0,1,74.73,144a5.13,5.13,0,0,1,3.15-2.89,6.06,6.06,0,0,1,3.43-.17,11.67,11.67,0,0,1,3,1.1,31.82,31.82,0,0,1,3,1.87c3.16,2.15,4.76,3.19,6.38,4.21l.2.13-.57.33a33,33,0,0,1-4,2,28.62,28.62,0,0,1-2.85,1c-.44.13-.89.26-1.37.37l-.74.17-.8.16a24.51,24.51,0,0,1-4.31.4,19.3,19.3,0,0,1-4.23-.46c-.54-.12-1-.28-1.47-.41s-.87-.3-1.27-.48-.82-.35-1.23-.59l-.65-.34-.67-.42a15.86,15.86,0,0,1-3.2-2.71A16.25,16.25,0,0,1,64,143.3c-.12-.27-.23-.54-.35-.79s-.18-.51-.27-.76l-.15-.38L63.1,141,63,140.8l-.09-.37a1.09,1.09,0,0,0-.29-.63c-.15-.17-.54-.26-1.74-.26l-1.46,0-3.92,0-30.25,0H24a4.7,4.7,0,0,1-.55,0l-.57,0a3.13,3.13,0,0,0-1.35.14,1.74,1.74,0,0,0-.67.44,1.93,1.93,0,0,0-.42.68,2.1,2.1,0,0,0,0,1.52,2.06,2.06,0,0,0,.48.68,1.76,1.76,0,0,0,.79.44,1.44,1.44,0,0,0,1.54-.6,1.15,1.15,0,0,0,0-1.18c-.17-.28-.4-.35-.47-.32s0,.1,0,.27a.8.8,0,0,1,0,.57.58.58,0,0,1-.51.41.9.9,0,0,1-.73-.29,1.1,1.1,0,0,1-.25-.85.78.78,0,0,1,.47-.66,2.15,2.15,0,0,1,1.06,0l.66.08.64,0,1.16,0c2.67.07,32.19.1,34.86.14h1a11.23,11.23,0,0,0,1.1,4h0c.12.27.24.55.39.85-.19-.12-.39-.23-.77-.44-4-2.21-9.32-1.66-9.32,1.33s2.59,1.44,2.53.72-.55-.55-.66-.39-1,.45-.77-.49,1.38-1.66,3.42-1.39a11.3,11.3,0,0,1,4.23,1.3,3,3,0,0,1,.72.5l.29.25c-.15,0-.34,0-.63,0a3.23,3.23,0,0,0-.82.07,2.2,2.2,0,0,0-.79.33,1.83,1.83,0,0,0-.61.64,1.74,1.74,0,0,0-.26.86,1.93,1.93,0,0,0,.19.91,1,1,0,0,0,.24.34,1.32,1.32,0,0,0,.52.31,1.38,1.38,0,0,0,.69,0,1,1,0,0,0,.54-.17.92.92,0,0,0,.36-.63.61.61,0,0,0-.24-.53c-.17-.09-.22,0-.24.08s0,.17-.06.23a.53.53,0,0,1-.25.33.4.4,0,0,1-.42-.09.72.72,0,0,1-.14-.54,1,1,0,0,1,.16-.43,1.3,1.3,0,0,1,.34-.35,1.64,1.64,0,0,1,.46-.22,3,3,0,0,1,.53-.08,2.46,2.46,0,0,1,.54,0l.47.23a9,9,0,0,1,.81.43l.8.51.8.51a4.56,4.56,0,0,0,.68.33,3.64,3.64,0,0,0,.58.44l.73.42c.32.24.64.45.94.64a2.09,2.09,0,0,0,.28.2,5.3,5.3,0,0,0,.55.31,19.56,19.56,0,0,0,2.33,1.12c.46.19,1,.33,1.46.5s1.06.3,1.68.41l1,.17,1.1.11a20.15,20.15,0,0,0,2.63,0A27,27,0,0,0,84,154l.86-.18.78-.21c.51-.12,1-.28,1.45-.41A30.51,30.51,0,0,0,90,152a34.32,34.32,0,0,0,4.08-2.2c.41-.26.8-.51,1.15-.75,1.22.76,2.68,1.65,4.93,3,3.34,2,5.39,2.67,7.46,2.93a9.29,9.29,0,0,0,3.42-.22,8.64,8.64,0,0,0,2.06-.82,6.85,6.85,0,0,0,2.17-1.87,5.72,5.72,0,0,0,1.08-2.7,6.2,6.2,0,0,0-.19-2.26A7.28,7.28,0,0,0,115.5,145.43Zm-1.5,5.69a4.84,4.84,0,0,1-1.7,1.3,6.77,6.77,0,0,1-1.66.56,7.34,7.34,0,0,1-2.72,0c-1.71-.29-3.39-.91-6.56-2.95l-3.92-2.49.46-.33c1-.7,1.73-1.25,2.51-1.77A22.18,22.18,0,0,1,103,144a13,13,0,0,1,4.16-1.21,8.06,8.06,0,0,1,4.17.58,6,6,0,0,1,2.93,2.82,5.33,5.33,0,0,1,.5,1.36A4.14,4.14,0,0,1,114,151.12Z"/><path class="cls-1" d="M71.36,148.41a.91.91,0,0,0,0-1.82A.91.91,0,0,0,71.36,148.41Z"/><path class="cls-1" d="M70.34,144.78a.91.91,0,0,0,0-1.82A.91.91,0,0,0,70.34,144.78Z"/><path class="cls-1" d="M71.7,141.15a.91.91,0,0,0,0-1.82A.91.91,0,0,0,71.7,141.15Z"/><path class="cls-1" d="M77.38,143a3.27,3.27,0,0,1,3.44-.7.39.39,0,0,0,.5-.2.38.38,0,0,0-.2-.51,4,4,0,0,0-4.26.84,3.38,3.38,0,0,0-1.16,3.45.38.38,0,0,0,.36.27l.12,0a.38.38,0,0,0,.25-.48A2.64,2.64,0,0,1,77.38,143Z"/><path class="cls-1" d="M113.28,146.6a.31.31,0,0,0-.15.41,2.82,2.82,0,0,1-.15,3c-.93,1.24-3,1.83-5.26,1.49-2.06-.3-4.41-1.85-6.67-3.35l-1.15-.75a.3.3,0,1,0-.33.51l1.14.75c2.32,1.53,4.73,3.12,6.92,3.45a10.76,10.76,0,0,0,1.36.1,5.43,5.43,0,0,0,4.47-1.84,3.44,3.44,0,0,0,.22-3.62A.3.3,0,0,0,113.28,146.6Z"/><path class="cls-1" d="M172.35,138.49h38.8a.3.3,0,1,0,0-.6h-38.8a.3.3,0,1,0,0,.6Z"/><path class="cls-1" d="M213.75,140.63a1.8,1.8,0,0,0-.42-.68,1.74,1.74,0,0,0-.67-.44,3.12,3.12,0,0,0-1.35-.14l-.57,0a4.61,4.61,0,0,1-.55,0h-1.32l-30.25,0-3.92,0-1.46,0c-1.2,0-1.58.09-1.73.26a1,1,0,0,0-.3.63l-.09.37-.06.19-.11.38-.14.38c-.1.25-.18.5-.28.76l-.35.79a16.25,16.25,0,0,1-2.54,3.91,15.59,15.59,0,0,1-3.2,2.71l-.67.42-.65.34a12.56,12.56,0,0,1-1.23.59c-.4.18-.83.31-1.27.48s-.93.29-1.47.41a19.23,19.23,0,0,1-4.23.46,24.28,24.28,0,0,1-4.3-.4l-.81-.16-.74-.17c-.48-.11-.93-.24-1.37-.37a28.62,28.62,0,0,1-2.85-1,33,33,0,0,1-4-2l-.57-.33.2-.13c1.62-1,3.22-2.06,6.38-4.21a30.74,30.74,0,0,1,3-1.87,11.48,11.48,0,0,1,2.94-1.1,6,6,0,0,1,3.43.17,5.13,5.13,0,0,1,3.15,2.89,3.51,3.51,0,0,1-1.16,3.91,5.64,5.64,0,0,1-2,1.09,6.14,6.14,0,0,1-2.24.31,12.36,12.36,0,0,1-4.38-1.23c-1.06-.48-2.13-1-2.68-1.18s-.57,0,.57.88a15.56,15.56,0,0,0,4.22,2.26,8.81,8.81,0,0,0,3.39.4,7.55,7.55,0,0,0,2.65-.78,6.73,6.73,0,0,0,1.21-.81,5.25,5.25,0,0,0,1.12-1.28,4.48,4.48,0,0,0,.7-2,4.54,4.54,0,0,0-.44-2.54,6.32,6.32,0,0,0-1.81-2.19,7.82,7.82,0,0,0-1.93-1.07,6.71,6.71,0,0,0-1.77-.43,8.55,8.55,0,0,0-1.6,0c-2.06.19-4.07.89-7.46,2.77s-5,2.83-6.59,3.86l-1.25.79-.92-.63c-1-.68-1.78-1.23-2.6-1.75a24.72,24.72,0,0,0-2.79-1.55,14.54,14.54,0,0,0-4.55-1.28,9.81,9.81,0,0,0-4.78.62,6.71,6.71,0,0,0-1.57.89,7.73,7.73,0,0,0-1.19,1.08,7.86,7.86,0,0,0-.94,1.3,7.28,7.28,0,0,0-.7,1.69,6.2,6.2,0,0,0-.19,2.26,5.72,5.72,0,0,0,1.08,2.7A7,7,0,0,0,121,154a8.64,8.64,0,0,0,2.06.82,9.33,9.33,0,0,0,3.43.22c2.06-.26,4.11-1,7.45-2.93,2.25-1.32,3.71-2.21,4.93-3,.35.24.74.49,1.15.75a34.32,34.32,0,0,0,4.08,2.2,29.67,29.67,0,0,0,3,1.13c.47.13.93.29,1.44.41l.78.21.86.18a27.09,27.09,0,0,0,4.65.6,20.34,20.34,0,0,0,2.64,0l1.09-.11,1-.17c.62-.11,1.17-.28,1.69-.41s1-.31,1.45-.5a19.56,19.56,0,0,0,2.33-1.12,5.3,5.3,0,0,0,.55-.31,2.09,2.09,0,0,0,.28-.2c.3-.19.62-.4.95-.64s.36-.2.72-.42a4.44,4.44,0,0,0,.59-.44,5.05,5.05,0,0,0,.67-.33l.8-.51.8-.51a9,9,0,0,1,.81-.43l.47-.23a2.46,2.46,0,0,1,.54,0,2.85,2.85,0,0,1,.53.08,1.64,1.64,0,0,1,.46.22,1.16,1.16,0,0,1,.34.35,1,1,0,0,1,.16.43.72.72,0,0,1-.14.54.4.4,0,0,1-.42.09.53.53,0,0,1-.25-.33c0-.06,0-.15-.06-.23s-.07-.17-.23-.08a.6.6,0,0,0-.25.53.92.92,0,0,0,.36.63,1,1,0,0,0,.54.17,1.36,1.36,0,0,0,1.22-.34,1.14,1.14,0,0,0,.23-.34,1.93,1.93,0,0,0,.19-.91,1.87,1.87,0,0,0-.25-.86,2,2,0,0,0-.62-.64,2.25,2.25,0,0,0-.78-.33,3.38,3.38,0,0,0-.83-.07l-.63,0,.3-.25a2.67,2.67,0,0,1,.71-.5,11.3,11.3,0,0,1,4.23-1.3c2-.27,3.2.45,3.42,1.39s-.66.66-.77.49-.61-.33-.66.39,2.53,2.27,2.53-.72-5.34-3.54-9.32-1.33c-.38.21-.58.32-.77.44.15-.3.28-.58.39-.85h0a11.23,11.23,0,0,0,1.1-4h1c2.67,0,32.19-.07,34.86-.14l1.16,0,.64,0,.66-.08a2.15,2.15,0,0,1,1.06,0,.78.78,0,0,1,.47.66,1.1,1.1,0,0,1-.25.85.9.9,0,0,1-.73.29.59.59,0,0,1-.51-.41.8.8,0,0,1,0-.57c.07-.17.12-.25,0-.27s-.3,0-.47.32a1.15,1.15,0,0,0,0,1.18,1.44,1.44,0,0,0,1.54.6,1.85,1.85,0,0,0,.8-.44,2.19,2.19,0,0,0,.47-.68A2.1,2.1,0,0,0,213.75,140.63Zm-80.94,9.43c-3.18,2-4.86,2.66-6.57,2.95a7.34,7.34,0,0,1-2.72,0,6.77,6.77,0,0,1-1.66-.56,4.84,4.84,0,0,1-1.7-1.3,4.17,4.17,0,0,1-.8-3.6,5.33,5.33,0,0,1,.5-1.36,6.57,6.57,0,0,1,.71-1.11,6.06,6.06,0,0,1,2.22-1.71,8.08,8.08,0,0,1,4.18-.58,13,13,0,0,1,4.15,1.21,22.18,22.18,0,0,1,2.63,1.5c.78.52,1.55,1.07,2.51,1.77l.46.33Z"/><path class="cls-1" d="M162.8,148.41a.91.91,0,0,0,0-1.82A.91.91,0,0,0,162.8,148.41Z"/><path class="cls-1" d="M163.82,144.78a.91.91,0,0,0,0-1.82A.91.91,0,0,0,163.82,144.78Z"/><path class="cls-1" d="M162.46,141.15a.91.91,0,0,0,0-1.82A.91.91,0,0,0,162.46,141.15Z"/><path class="cls-1" d="M158,146.31l.12,0a.4.4,0,0,0,.37-.28,3.4,3.4,0,0,0-1.17-3.45,4,4,0,0,0-4.26-.84.39.39,0,0,0,.3.72,3.25,3.25,0,0,1,3.44.7,2.63,2.63,0,0,1,.95,2.64A.39.39,0,0,0,158,146.31Z"/><path class="cls-1" d="M134,147.68l-1.15.75c-2.26,1.5-4.61,3-6.67,3.35-2.27.33-4.34-.25-5.26-1.49a2.83,2.83,0,0,1-.15-3,.3.3,0,0,0-.15-.4.32.32,0,0,0-.41.15,3.42,3.42,0,0,0,.23,3.62,5.43,5.43,0,0,0,4.47,1.83,9.18,9.18,0,0,0,1.36-.1c2.19-.32,4.59-1.91,6.92-3.45l1.13-.74a.3.3,0,0,0,.09-.42A.28.28,0,0,0,134,147.68Z"/><path class="cls-2" d="M9.15,131.74a6.89,6.89,0,0,0-2.2.33,7.15,7.15,0,0,0,.27-2c0-1.76-.52-3.18-1.16-3.18S4.91,128.27,4.91,130A7.4,7.4,0,0,0,5.15,132a7.23,7.23,0,0,0-2-.25c-1.75,0-3.17.52-3.17,1.16S1.42,134,3.17,134a7.07,7.07,0,0,0,2-.25,7.1,7.1,0,0,0-.25,2c0,1.75.52,3.18,1.16,3.18s1.15-1.43,1.15-3.18a7.48,7.48,0,0,0-.26-2,6.69,6.69,0,0,0,2.22.34c1.75,0,3.17-.52,3.17-1.16S10.9,131.74,9.15,131.74Z"/><path class="cls-3" d="M120.22,158.81a6.87,6.87,0,0,0-2.2.32,7.47,7.47,0,0,0,.27-2c0-1.76-.52-3.18-1.16-3.18s-1.16,1.42-1.16,3.18a7.4,7.4,0,0,0,.24,1.94,7.15,7.15,0,0,0-2-.25c-1.76,0-3.17.52-3.17,1.16s1.41,1.16,3.17,1.16a7.05,7.05,0,0,0,2-.25,7.61,7.61,0,0,0-.25,2c0,1.76.52,3.18,1.16,3.18s1.16-1.42,1.16-3.18a7.4,7.4,0,0,0-.26-2,6.93,6.93,0,0,0,2.22.33c1.75,0,3.16-.52,3.16-1.16S122,158.81,120.22,158.81Z"/><path class="cls-4" d="M233.71,131.74a6.84,6.84,0,0,0-2.2.33,7.15,7.15,0,0,0,.27-2c0-1.76-.52-3.18-1.16-3.18s-1.16,1.42-1.16,3.18a7.4,7.4,0,0,0,.24,1.94,7.15,7.15,0,0,0-2-.25c-1.75,0-3.17.52-3.17,1.16S226,134,227.73,134a7.05,7.05,0,0,0,2-.25,7.5,7.5,0,0,0-.25,2c0,1.75.52,3.18,1.16,3.18s1.16-1.43,1.16-3.18a7.48,7.48,0,0,0-.26-2,6.64,6.64,0,0,0,2.22.34c1.75,0,3.17-.52,3.17-1.16S235.46,131.74,233.71,131.74Z"/></g></g></g></svg>