<svg xmlns="http://www.w3.org/2000/svg" viewBox="0 0 125.57 88"><defs><style>.cls-1{fill:#a59e86;}.cls-2{fill:#a8bdff;}.cls-3{fill:#ffa8bd;}.cls-4{fill:#c3f68c;}</style></defs><g id="レイヤー_2" data-name="レイヤー 2"><g id="レイヤー_1-2" data-name="レイヤー 1"><g id="color"><path class="cls-1" d="M75.21,38.93a.34.34,0,0,1-.14,0,.61.61,0,0,1-.45-.74,17.9,17.9,0,0,0-.82-10.26,20,20,0,0,0-2.64-5,.64.64,0,0,1-.14-.55.62.62,0,0,1,.36-.43l.41-.16a15.66,15.66,0,0,0,5.72-3.53A22.9,22.9,0,0,0,82,10.28C83.14,6.91,83.17,4,82.12,2a.62.62,0,0,1,1.09-.58,9,9,0,0,1,.91,4.42,17.37,17.37,0,0,1-.91,4.86,23.89,23.89,0,0,1-4.8,8.39,16.16,16.16,0,0,1-5.83,3.7A23.06,23.06,0,0,1,75,27.49a20.76,20.76,0,0,1,1.21,5,17,17,0,0,1-.35,5.93A.62.62,0,0,1,75.21,38.93Z"/><ellipse class="cls-1" cx="69.84" cy="35.12" rx="1.58" ry="1.58"/><path class="cls-1" d="M69.46,51c.49,0,.64.53.64,1.5v2.31c0,.27.06.53.38.53s.76.09.61.5a12,12,0,0,1-.73,1.44,5.46,5.46,0,0,0-.29,2.14c0,.56.29.76,1.14.26S77.4,56.92,79,56.21s1.37,1.44,1.37,2.67v4.7c0,1,1.29,1.26,1.64.73s-.23-.68-.32-.59a.46.46,0,0,1-.64-.09c-.21-.26-.12-.64.61-.73a1.32,1.32,0,0,1,1.49,1.38,1.54,1.54,0,0,1-1.75,1.64A2.42,2.42,0,0,1,79,63.49V58.44c0-.56-.23-.76-1.08-.35S71.76,60.88,71,61.2s-.93.56-.93,1.58v3.35c0,.88-.29,1.17-.64,1.17S68.81,67,68.81,66V62.73c0-.59-.41-.36-.67-.21s-1.26.56-1.49,0,.29-.85.88-1.2.93-.24,1.08-1.59.14-1.44.23-2.32-.41-.76-.58-.76-1.11,0-1.11-.7.93-.68,1-.68.44.06.59-.09a4.94,4.94,0,0,0,.11-1.49V52C68.84,50.87,69.46,51,69.46,51Z"/><path class="cls-1" d="M80.63.45A.62.62,0,0,0,79.87,0a15.69,15.69,0,0,0-3.78,1.6A12,12,0,0,0,73,4.24a28.58,28.58,0,0,0-3.63,6.26c-1.25,2.67-2.43,5.2-4.64,6.88-.12,0-.37,0-.58-.07a10.1,10.1,0,0,0-5.87.59C54.57,7.42,48.48,1.13,41.05.62c-.78,14.52,5.5,19.77,10.64,22.06-4.86,6.26-7.09,20.14,4.73,22.93a19.94,19.94,0,0,0,4.6.59c.42,0,.84,0,1.24,0a21.59,21.59,0,0,0,6.39-.83,10.55,10.55,0,0,0,5.91-4.21.63.63,0,0,0-.18-.86.62.62,0,0,0-.85.18c-1.59,2.43-4.3,3.86-8.23,4.32C62.09,45.06,62,43,62,42.66V40.1c-.66-.08-1.11-.84-1.22-1.29s.19-.75,1.22-.76V20.21a1.72,1.72,0,0,1,1.89-1.69h0a2,2,0,0,0,1.34,0l0,0c2.52-1.86,3.79-4.56,5.13-7.42A26.94,26.94,0,0,1,73.9,5a12.51,12.51,0,0,1,6.3-3.82A.63.63,0,0,0,80.63.45ZM51.13,33.86c3.25-1,5.29-1.32,7.25,2.37C55.17,37.93,51.05,36.44,51.13,33.86Z"/><path class="cls-1" d="M89,63.26l-.4,0a2.72,2.72,0,0,1-2.46-2.7,3.57,3.57,0,0,1,1-2.39,4.14,4.14,0,0,1,2.06-1.22,5.12,5.12,0,0,1,2.45.06,10.93,10.93,0,0,1,2.67,1.12.61.61,0,0,1,.23.83.61.61,0,0,1-.84.24c-1.71-1-3.13-1.32-4.23-1.05a2.65,2.65,0,0,0-2.07,2.43,1.31,1.31,0,0,0,.44,1,1.88,1.88,0,0,0,1,.43,1.32,1.32,0,0,0,1.1-.29.92.92,0,0,0,.21-.81.61.61,0,1,1,1.21-.18,2.1,2.1,0,0,1-.55,1.85A2.41,2.41,0,0,1,89,63.26Z"/><path class="cls-1" d="M101.66,63.87c-1.32,0-2.61-.94-4.55-2.35-.51-.37-1.08-.79-1.71-1.22a.62.62,0,0,1-.15-.86.6.6,0,0,1,.85-.15c.64.44,1.22.86,1.73,1.23,1.75,1.28,2.9,2.12,3.83,2.12a1.86,1.86,0,0,0,1.26-.37,1.14,1.14,0,0,0,.26-.85.87.87,0,0,0-.71-.85.48.48,0,0,0-.5.15c0,.06,0,.09,0,.1a.63.63,0,0,1-.21.85.61.61,0,0,1-.84-.21A1.3,1.3,0,0,1,101,60a1.71,1.71,0,0,1,1.74-.65,2.09,2.09,0,0,1,1.69,2,2.3,2.3,0,0,1-.6,1.74A2.88,2.88,0,0,1,101.66,63.87Z"/><path class="cls-1" d="M108,52.1c-.44.27-.27.94,0,1.32s1.66,2.56,2.33,2.15-.81-2.64-1.08-2.94S108.44,51.84,108,52.1Z"/><path class="cls-1" d="M113.82,66.92a6.68,6.68,0,0,1-3.72-1c-2.09-1.44-2-4-1-5.88a25.78,25.78,0,0,1,5-5.48c1.43-1.09,1-1.64.89-1.87a.41.41,0,0,0-.39-.15.66.66,0,0,0-.49.28s0,.08.08.22A.66.66,0,0,1,114,54a.65.65,0,0,1-.9-.12,1.5,1.5,0,0,1-.24-1.52,1.88,1.88,0,0,1,1.55-1A1.65,1.65,0,0,1,116,52a2,2,0,0,1,.22,2,4.22,4.22,0,0,1-1.38,1.61,24.5,24.5,0,0,0-4.6,5c-.68,1.29-.92,3.16.61,4.22s4.49.6,4.52.6c.34-.07,1.33-.2,1.44.3s-.86.9-1.21,1A10.8,10.8,0,0,1,113.82,66.92Z"/><path class="cls-1" d="M119.34,52.71c.39.35.49.84.24,1.11s-.71.21-1.13-.14a.79.79,0,0,1-.21-1.12C118.48,52.29,119,52.35,119.34,52.71Z"/><path class="cls-1" d="M120.8,51.27c.42.32.52.79.27,1s-.77.21-1.16-.08a.83.83,0,0,1-.27-1.12C119.89,50.85,120.39,50.94,120.8,51.27Z"/><path class="cls-1" d="M17.1,62.36a1.74,1.74,0,0,0-1.85-.53.65.65,0,0,0,.3,1.26c.18-.05.43-.07.53.07a.59.59,0,0,1,0,.59c-.1.21-.52.33-.95.16-.28-.11-.5-.22-.72-.32a5.53,5.53,0,0,0-2-.63h-.07c-.23-.06-.27-.45-.27-.74,0-.83,0-2,0-3.49h0c0-.78.27-.86.74-.86h.61c.36,0,1-.15,1-.65s-.66-.65-1-.65h-.66c-.62,0-.68-.29-.68-1v-.88c0-.52.22-.7.5-.7h.7c.35,0,.87-.14.87-.64s-.52-.65-.87-.65h-.61c-.42,0-.59-.26-.59-.89v-.46c0-.35-.15-.94-.65-.94s-.64.59-.64.94V52c0,.59-.22.74-.61.74H8.88c-.35,0-.82.29-.82.65s.47.64.82.64h1.35a.53.53,0,0,1,.58.56v1.34c0,.64-.29.68-1,.68H8.8c-.36,0-1.09.09-1.09.65s.73.65,1.09.65H10c.52,0,.84.06.84.81,0,1.52,0,2.64,0,3.48v0h0c0,.57-.18.69-.58.71h0a3.57,3.57,0,0,0-1.93.66,2.36,2.36,0,0,0,1.48,4.16,2.07,2.07,0,0,0,2-1.61A4.7,4.7,0,0,0,12,65h0c.06-.45.24-.81,1-.64a5.88,5.88,0,0,1,.92.37c.23.11.49.24.82.37a2.3,2.3,0,0,0,1.44.08,1.69,1.69,0,0,0,1.11-.86A1.88,1.88,0,0,0,17.1,62.36ZM9.76,66.42c-.61,0-1-.19-1-1.11a.88.88,0,0,1,.34-.74,2.06,2.06,0,0,1,1-.37c.3,0,.7,0,.67.54C10.65,65.92,10.34,66.42,9.76,66.42Z"/><path class="cls-1" d="M37.17,53h-3c-.5,0-.79-.08-.79-.72V51.4c0-.36-.15-.88-.64-.88s-.65.52-.65.88V52c0,.74-.14,1-.64,1H26c-.36,0-1,.12-1,.65s.61.65,1,.65h5.2c.67,0,.9.22.9.78v1.45c0,.82-.35.67-.76.76a2.25,2.25,0,0,0-2,2.26A2.41,2.41,0,0,0,31.76,62c.29,0,.29.06.29.71a14.9,14.9,0,0,1-.55,3.66c-.32.71-1,.62-1.08.36s.09-.41.35-.5a.5.5,0,0,0,.38-.56c0-.29-.18-.47-.44-.47a1.55,1.55,0,0,0-1.08.47,1.49,1.49,0,0,0-.29,1.29,1.57,1.57,0,0,0,.57.9,1.5,1.5,0,0,0,2.29-.58,12.13,12.13,0,0,0,1.14-4,31,31,0,0,0,.38-3.75,25.73,25.73,0,0,0-.32-3V55.13c0-.59.16-.85.74-.85h3c.35,0,1-.12,1-.65S37.52,53,37.17,53Zm-5.32,7.66c-.5,0-1.11-.14-1.11-1.14,0-.62.32-1.12.82-1.09s.76.18.82.65S32.35,60.61,31.85,60.64Z"/><path class="cls-1" d="M55.07,55.84a5.34,5.34,0,0,0-2.91-.63h-.55c-.77,0-.78-.37-.63-1l.09-.31h0c.1-.39.17-.65.2-.75.09-.35.1-.86-.37-1s-.78.33-.87.67c0,.13-.14.53-.29,1.08l0,.07c-.22.79-.32,1.23-1,1.23h-.83c-.35,0-1,0-1,.65s.7.65,1,.65h.64c.28,0,.51,0,.34.72h0c-.69,2.56-1.47,5.46-1.7,6.44A9.32,9.32,0,0,1,46.72,65c-.25.58-.47.73-.55.76-.31.14-.74.2-.9-.1a.52.52,0,0,1,0-.42s.07-.16.31-.23a.65.65,0,0,0-.34-1.25,1.72,1.72,0,0,0-1.16,1,1.81,1.81,0,0,0,.09,1.54,1.68,1.68,0,0,0,1.1.83,1.76,1.76,0,0,0,.46.06,2.42,2.42,0,0,0,1-.23c1-.42,1.4-1.76,1.7-3,.24-1,1-4,1.74-6.59.22-.83.63-.88,1.11-.88h.92c2,0,2.89.33,3,2.28.08,1.63,0,4.62,0,6.45-.06.63-.19.54-.34.54h-.56c-.41,0-.76,0-.76.35s1.41,1.06,2,1.27l.16,0h.09a.64.64,0,0,0,.64-.63c0-.23.12-5.6,0-8.09A3.38,3.38,0,0,0,55.07,55.84Z"/><path class="cls-1" d="M58.32,52.63c-.72-.64-1.31-1.12-1.79-.72s.06,1,.77,1.66c.94.88,2.28,1.85,2.57,1.44S59.32,53.51,58.32,52.63Z"/><path class="cls-1" d="M49.53,71.94a.45.45,0,0,1-.9,0c0-.16,0-1-.06-1.55,0,0,0-.49-.2-.15s-.35.52-.41.58a.54.54,0,0,1-.39.18.57.57,0,0,1-.42-.21c-.12-.14-.31-.36-.45-.54s-.19-.18-.19.11c0,.54,0,1.41,0,1.55a.49.49,0,0,1-.47.47h0c-.15,0-.41-.07-.45-.47s0-1.74,0-2.54v0c0-.25,0-.43,0-.5,0-.35.12-.57.37-.65l.13,0c.22,0,.41.2.61.43s.49.68.69,1a.18.18,0,0,0,.32,0,11.91,11.91,0,0,1,.87-1.29.74.74,0,0,1,.42-.15.4.4,0,0,1,.28.1.77.77,0,0,1,.24.69c0,.07,0,.3,0,.61v0C49.53,70.39,49.54,71.77,49.53,71.94Z"/><path class="cls-1" d="M51.41,72.37a1.16,1.16,0,0,1-1.14-1.12,1.39,1.39,0,0,1,.81-1.47,1.55,1.55,0,0,1,1.84.46A2.79,2.79,0,0,1,53.16,72a.42.42,0,0,1-.46.44.32.32,0,0,1-.25-.12.24.24,0,0,0-.3-.08A1.38,1.38,0,0,1,51.41,72.37Zm.43-1.89a.56.56,0,0,0-.72.48.52.52,0,0,0,.53.62.64.64,0,0,0,.58-.36A.52.52,0,0,0,51.84,70.48Z"/><path class="cls-1" d="M55.06,69.22a1,1,0,0,1,1,.39.41.41,0,0,1-.36.57c-.29,0-.54-.22-.72,0s.21.3.39.45a1.2,1.2,0,0,1,.55,1.24c-.14.51-.45.7-1,.69s-.85-.2-1-.37,0-.74.46-.64.67.19.74,0-.4-.37-.63-.58a1,1,0,0,1-.38-1.09A.92.92,0,0,1,55.06,69.22Z"/><path class="cls-1" d="M58.7,73.34a.51.51,0,0,1-.41-.51v-.26a.24.24,0,0,0-.25-.28,1.6,1.6,0,0,1-1.18-.47A1.54,1.54,0,0,1,56.75,70a1.85,1.85,0,0,1,1.58-.54c.47,0,.81,0,.86.58s0,2.44,0,2.83S59,73.37,58.7,73.34Zm-1.05-3a.53.53,0,0,0-.2.71.62.62,0,0,0,.64.29c.22,0,.31-.09.31-.31s0-.35,0-.57S57.89,70.24,57.65,70.37Z"/><path class="cls-1" d="M60.4,69.47c.32,0,.46.31.48.56s0,1.31.16,1.4.61.12.73-.14a6.2,6.2,0,0,0,.09-1.42c0-.26.2-.39.49-.37s.37.24.39.76.13,1.88-.9,2.09-1.64-.12-1.8-.92A4.18,4.18,0,0,1,60,70.14C59.94,69.66,60.08,69.49,60.4,69.47Z"/><path class="cls-1" d="M64.32,69.5a1.19,1.19,0,0,1,1.31.58.79.79,0,0,1-.25,1.09,2,2,0,0,1-.84.14c-.11,0-.16.06-.09.12a.78.78,0,0,0,.71.08.38.38,0,0,1,.41.56c-.1.19-.44.42-1.16.29s-1.09-.46-1.09-1.55A1.27,1.27,0,0,1,64.32,69.5Zm.13.73c-.22.08-.24.3-.13.39s.69,0,.63-.19A.36.36,0,0,0,64.45,70.23Z"/><path class="cls-1" d="M66.85,69.38a.42.42,0,0,1,.46.46c0,.18.09.21.22.11a2.12,2.12,0,0,1,.52-.28c.4-.12.79-.06.86.27s-.09.47-.54.59a1.25,1.25,0,0,0-.92.87c-.1.35,0,.87-.35.95-.55.15-.52-.17-.57-.45s0-1.48-.07-1.88S66.55,69.38,66.85,69.38Z"/><path class="cls-1" d="M70.34,72.37a1.16,1.16,0,0,1-1.14-1.12A1.41,1.41,0,0,1,70,69.78a1.55,1.55,0,0,1,1.84.46A2.86,2.86,0,0,1,72.1,72a.43.43,0,0,1-.47.44.35.35,0,0,1-.25-.12.23.23,0,0,0-.29-.08A1.4,1.4,0,0,1,70.34,72.37Zm.44-1.89a.55.55,0,0,0-.72.48.52.52,0,0,0,.53.62.65.65,0,0,0,.58-.36A.52.52,0,0,0,70.78,70.48Z"/><path class="cls-1" d="M74.74,72.39a2,2,0,0,1-1.65-.52,1.49,1.49,0,0,1,.09-1.81,1.7,1.7,0,0,1,1.25-.48.25.25,0,0,0,.26-.26v-.63a.55.55,0,0,1,.44-.52.46.46,0,0,1,.53.48c0,.4.06,2.55,0,3.15S75.21,72.37,74.74,72.39Zm-.25-1.92a.65.65,0,0,0-.65.29.54.54,0,0,0,.21.71c.25.14.73.12.74-.13s0-.4,0-.57S74.7,70.47,74.49,70.47Z"/><path class="cls-1" d="M77.41,69.5a1.19,1.19,0,0,1,1.31.58.79.79,0,0,1-.25,1.09,2,2,0,0,1-.84.14c-.11,0-.16.06-.09.12a.78.78,0,0,0,.71.08.38.38,0,0,1,.41.56c-.1.19-.44.42-1.16.29s-1.09-.46-1.09-1.55A1.27,1.27,0,0,1,77.41,69.5Zm.13.73c-.22.08-.24.3-.13.39s.69,0,.63-.19A.36.36,0,0,0,77.54,70.23Z"/><path class="cls-1" d="M33.72,70.88H8A.44.44,0,0,1,8,70H33.72a.44.44,0,0,1,0,.88Z"/><path class="cls-1" d="M40.59,70.88H35.91a.44.44,0,0,1,0-.88h4.68a.44.44,0,0,1,0,.88Z"/><path class="cls-1" d="M43,70.88h-.73a.44.44,0,0,1,0-.88H43a.44.44,0,0,1,0,.88Z"/><path class="cls-1" d="M117.58,70.88h-27a.44.44,0,0,1,0-.88h27a.44.44,0,0,1,0,.88Z"/><path class="cls-1" d="M88.27,70.88H83.54a.44.44,0,0,1,0-.88h4.73a.44.44,0,0,1,0,.88Z"/><path class="cls-1" d="M81.82,70.88h-.73a.44.44,0,0,1,0-.88h.73a.44.44,0,0,1,0,.88Z"/><path class="cls-1" d="M12,73.27H32.61a.16.16,0,1,0,0-.32H12a.16.16,0,1,0,0,.32Z"/><path class="cls-1" d="M61.23,77.1a4.43,4.43,0,0,0-.5-.7,4.32,4.32,0,0,0-.63-.57,3.46,3.46,0,0,0-.83-.47A5.17,5.17,0,0,0,56.74,75a7.72,7.72,0,0,0-2.42.67,14.88,14.88,0,0,0-1.48.82c-.43.28-.85.57-1.37.93L51,77.8l-.66-.43c-.86-.54-1.72-1.07-3.5-2a9.86,9.86,0,0,0-4-1.47,4,4,0,0,0-.85,0,3.79,3.79,0,0,0-.94.23,4.06,4.06,0,0,0-1,.57,3.24,3.24,0,0,0-1,1.16,2.48,2.48,0,0,0-.24,1.35,2.61,2.61,0,0,0,.37,1,2.7,2.7,0,0,0,.6.68,3.42,3.42,0,0,0,.64.43,4.13,4.13,0,0,0,1.41.42,4.94,4.94,0,0,0,1.79-.21,8.24,8.24,0,0,0,2.24-1.21c.6-.45.59-.55.3-.46s-.86.37-1.42.62a6.29,6.29,0,0,1-2.32.65A3,3,0,0,1,41.28,79a2.85,2.85,0,0,1-1.05-.58,1.85,1.85,0,0,1-.61-2.07,2.7,2.7,0,0,1,1.67-1.53,3.21,3.21,0,0,1,1.82-.09,6.26,6.26,0,0,1,1.56.58,17.35,17.35,0,0,1,1.6,1C48,77.41,48.8,78,49.65,78.51l.11.06-.3.18a19,19,0,0,1-2.11,1c-.58.23-1,.39-1.51.53l-.73.2-.39.09-.43.08a12,12,0,0,1-2.28.22,9.8,9.8,0,0,1-2.25-.25c-.28-.06-.54-.14-.78-.21s-.46-.16-.67-.26-.43-.18-.65-.31l-.34-.18L37,79.47A8.44,8.44,0,0,1,35.26,78,8.56,8.56,0,0,1,33.92,76c-.06-.15-.13-.29-.19-.42s-.09-.28-.14-.41l-.08-.2-.06-.2,0-.1-.05-.19a.57.57,0,0,0-.16-.34c-.07-.09-.28-.14-.92-.14h-.77l-2.08,0h-17l-.31,0a1.65,1.65,0,0,0-.71.08,1.05,1.05,0,0,0-.36.23.9.9,0,0,0-.22.36,1.13,1.13,0,0,0,0,.81,1.23,1.23,0,0,0,.25.36,1,1,0,0,0,.42.23.75.75,0,0,0,.82-.32.6.6,0,0,0,0-.62c-.09-.15-.21-.19-.25-.18s0,.06,0,.15a.39.39,0,0,1,0,.3.3.3,0,0,1-.27.22.46.46,0,0,1-.38-.15.6.6,0,0,1-.14-.45.45.45,0,0,1,.25-.36,1.31,1.31,0,0,1,.57,0l.35,0,.34,0h.61c1.41,0,17.06.06,18.48.08h.55a5.5,5.5,0,0,0,.58,2.13h0a4.54,4.54,0,0,0,.21.45L32.85,77c-2.11-1.17-4.94-.88-4.94.71s1.37.76,1.34.38-.29-.3-.35-.21-.53.24-.41-.26.73-.88,1.81-.73a5.81,5.81,0,0,1,2.25.69,1.26,1.26,0,0,1,.37.26l.16.13-.33,0a1.59,1.59,0,0,0-.44,0,1.13,1.13,0,0,0-.42.17,1.06,1.06,0,0,0-.32.34,1,1,0,0,0-.14.46,1.08,1.08,0,0,0,.1.48.68.68,0,0,0,.13.18.62.62,0,0,0,.27.16.69.69,0,0,0,.37,0,.53.53,0,0,0,.29-.09.54.54,0,0,0,.19-.33.35.35,0,0,0-.13-.29c-.09,0-.12,0-.13,0a1.3,1.3,0,0,1,0,.13c0,.09-.08.16-.13.17a.2.2,0,0,1-.22,0,.36.36,0,0,1-.08-.29.5.5,0,0,1,.09-.23.59.59,0,0,1,.18-.18.74.74,0,0,1,.24-.12,1.31,1.31,0,0,1,.28,0,1.15,1.15,0,0,1,.29,0l.25.12.43.23.42.27.42.27a4,4,0,0,0,.36.18,2.23,2.23,0,0,0,.31.23l.39.22.5.34.15.11.29.16a9.1,9.1,0,0,0,1.23.59c.25.1.51.18.77.27s.57.16.9.22l.52.09.58.06a12.6,12.6,0,0,0,1.4,0,14.25,14.25,0,0,0,2.46-.32l.45-.1.42-.1.77-.22a16.27,16.27,0,0,0,1.57-.6,17.62,17.62,0,0,0,2.17-1.17l.61-.39c.64.4,1.42.87,2.61,1.57a10,10,0,0,0,4,1.55,4.81,4.81,0,0,0,1.82-.11A4.53,4.53,0,0,0,60,81.61a3.69,3.69,0,0,0,1.15-1,3.05,3.05,0,0,0,.57-1.43,3.25,3.25,0,0,0-.1-1.2A3.45,3.45,0,0,0,61.23,77.1Zm-.8,3a2.5,2.5,0,0,1-.9.69,3.82,3.82,0,0,1-.88.3,4.12,4.12,0,0,1-1.44,0,9,9,0,0,1-3.48-1.57l-2.07-1.32.24-.18c.51-.37.92-.66,1.33-.93a13.2,13.2,0,0,1,1.39-.8,7.05,7.05,0,0,1,2.21-.64A4.2,4.2,0,0,1,59,76a3,3,0,0,1,1.17.9,3.3,3.3,0,0,1,.38.59,2.76,2.76,0,0,1,.27.73A2.19,2.19,0,0,1,60.43,80.11Z"/><path class="cls-1" d="M37.83,78.67a.48.48,0,0,0,0-1A.48.48,0,0,0,37.83,78.67Z"/><path class="cls-1" d="M37.29,76.75a.48.48,0,0,0,0-1A.48.48,0,0,0,37.29,76.75Z"/><path class="cls-1" d="M38,74.83a.49.49,0,0,0,0-1A.49.49,0,0,0,38,74.83Z"/><path class="cls-1" d="M41,75.82a1.73,1.73,0,0,1,1.82-.38.2.2,0,0,0,.27-.11.2.2,0,0,0-.1-.27,2.14,2.14,0,0,0-2.26.45,1.79,1.79,0,0,0-.62,1.83.2.2,0,0,0,.19.14h.06a.2.2,0,0,0,.14-.25A1.38,1.38,0,0,1,41,75.82Z"/><path class="cls-1" d="M60.05,77.72a.16.16,0,0,0-.08.21,1.48,1.48,0,0,1-.08,1.59,3,3,0,0,1-2.79.8,10.38,10.38,0,0,1-3.53-1.78l-.61-.4a.16.16,0,1,0-.17.27l.6.4a10.3,10.3,0,0,0,3.67,1.82,4.37,4.37,0,0,0,.72.06,2.9,2.9,0,0,0,2.37-1,1.83,1.83,0,0,0,.12-1.92A.17.17,0,0,0,60.05,77.72Z"/><path class="cls-1" d="M91.36,73.42h20.57a.16.16,0,1,0,0-.32H91.36a.16.16,0,0,0,0,.32Z"/><path class="cls-1" d="M113.32,74.55a1,1,0,0,0-.59-.59,1.65,1.65,0,0,0-.71-.08l-.3,0h-17l-2.08,0h-.77c-.64,0-.84,0-.92.14a.57.57,0,0,0-.16.34l0,.19,0,.1-.06.2-.07.2c0,.13-.09.27-.15.41s-.12.27-.18.42A8.66,8.66,0,0,1,88.87,78a8.18,8.18,0,0,1-1.7,1.43l-.35.23-.34.18a6.53,6.53,0,0,1-.66.31c-.21.1-.44.17-.67.26s-.49.15-.78.21a9.7,9.7,0,0,1-2.24.25,12.13,12.13,0,0,1-2.29-.22l-.42-.08-.4-.09-.72-.2c-.47-.14-.94-.3-1.51-.53a19,19,0,0,1-2.12-1l-.3-.18.11-.06c.85-.54,1.7-1.1,3.38-2.24a16.24,16.24,0,0,1,1.61-1A6,6,0,0,1,81,74.7a3.22,3.22,0,0,1,1.82.09,2.75,2.75,0,0,1,1.67,1.53,1.86,1.86,0,0,1-.62,2.07,2.78,2.78,0,0,1-1.05.58,3,3,0,0,1-1.18.16,6.29,6.29,0,0,1-2.33-.65c-.56-.25-1.13-.53-1.42-.62s-.3,0,.3.46a8.24,8.24,0,0,0,2.24,1.21,5,5,0,0,0,1.8.21,4.07,4.07,0,0,0,1.4-.42,3.18,3.18,0,0,0,.65-.43,2.68,2.68,0,0,0,.59-.68,2.34,2.34,0,0,0,.37-1A2.47,2.47,0,0,0,85,75.82a3.35,3.35,0,0,0-1-1.16,4.24,4.24,0,0,0-1-.57,3.9,3.9,0,0,0-.94-.23,4,4,0,0,0-.85,0,9.94,9.94,0,0,0-4,1.47c-1.78,1-2.64,1.5-3.49,2l-.66.43-.49-.34-1.38-.93a13.83,13.83,0,0,0-1.48-.82A7.73,7.73,0,0,0,67.4,75a5.21,5.21,0,0,0-2.54.32,3.67,3.67,0,0,0-.83.47,4.32,4.32,0,0,0-.63.57,4.38,4.38,0,0,0-.49.7,3.84,3.84,0,0,0-.38.89,3.25,3.25,0,0,0-.1,1.2A3.08,3.08,0,0,0,63,80.62a3.56,3.56,0,0,0,1.14,1,4.58,4.58,0,0,0,1.1.44,4.76,4.76,0,0,0,1.81.11,10,10,0,0,0,4-1.55c1.19-.7,2-1.17,2.61-1.57l.61.39A17.61,17.61,0,0,0,76.4,80.6a15.44,15.44,0,0,0,1.58.6l.76.22.42.1.46.1a14.12,14.12,0,0,0,2.46.32,12.68,12.68,0,0,0,1.4,0l.58-.06.52-.09c.33-.06.61-.15.89-.22s.52-.17.77-.27a9.8,9.8,0,0,0,1.24-.59l.29-.16.14-.11.51-.34.38-.22a2.23,2.23,0,0,0,.31-.23,4,4,0,0,0,.36-.18l.42-.27.43-.27.43-.23.25-.12a1,1,0,0,1,.28,0,1.12,1.12,0,0,1,.28,0,.77.77,0,0,1,.25.12.74.74,0,0,1,.18.18.67.67,0,0,1,.08.23.42.42,0,0,1-.07.29.22.22,0,0,1-.23,0,.27.27,0,0,1-.13-.17,1.3,1.3,0,0,1,0-.13s0-.08-.12,0a.3.3,0,0,0-.13.29.46.46,0,0,0,.19.33.47.47,0,0,0,.28.09.69.69,0,0,0,.37,0,.67.67,0,0,0,.28-.16.63.63,0,0,0,.12-.18,1,1,0,0,0,.1-.48,1,1,0,0,0-.13-.46,1.26,1.26,0,0,0-.33-.34,1.1,1.1,0,0,0-.41-.17,1.68,1.68,0,0,0-.44,0l-.34,0,.16-.13a1.34,1.34,0,0,1,.38-.26,5.75,5.75,0,0,1,2.24-.69c1.08-.15,1.7.23,1.81.73s-.35.35-.4.26-.33-.17-.36.21,1.35,1.2,1.35-.38-2.84-1.88-4.94-.71l-.41.23a4.54,4.54,0,0,0,.21-.45h0a5.9,5.9,0,0,0,.58-2.13h.54c1.42,0,17.07,0,18.48-.08h.62l.34,0,.35,0a1.27,1.27,0,0,1,.56,0,.43.43,0,0,1,.25.36.59.59,0,0,1-.13.45.46.46,0,0,1-.39.15.3.3,0,0,1-.27-.22.44.44,0,0,1,0-.3c0-.09.07-.13,0-.15a.32.32,0,0,0-.25.18.62.62,0,0,0,0,.62.75.75,0,0,0,.82.32.91.91,0,0,0,.42-.23,1.07,1.07,0,0,0,.25-.36A1.13,1.13,0,0,0,113.32,74.55Zm-42.92,5a9,9,0,0,1-3.48,1.57,4.12,4.12,0,0,1-1.44,0,4,4,0,0,1-.88-.3,2.59,2.59,0,0,1-.9-.69,2.15,2.15,0,0,1-.42-1.9,2.74,2.74,0,0,1,.26-.73,3.3,3.3,0,0,1,.38-.59A3.08,3.08,0,0,1,65.1,76a4.2,4.2,0,0,1,2.21-.31,7,7,0,0,1,2.2.64,12.25,12.25,0,0,1,1.39.8c.42.27.82.56,1.33.93l.25.18Z"/><path class="cls-1" d="M86.3,78.67a.48.48,0,0,0,0-1A.48.48,0,0,0,86.3,78.67Z"/><path class="cls-1" d="M86.84,76.75a.48.48,0,0,0,0-1A.48.48,0,0,0,86.84,76.75Z"/><path class="cls-1" d="M86.12,74.83a.49.49,0,0,0,0-1A.49.49,0,0,0,86.12,74.83Z"/><path class="cls-1" d="M83.75,77.56h.06a.22.22,0,0,0,.2-.14,1.8,1.8,0,0,0-.62-1.83,2.14,2.14,0,0,0-2.26-.45.21.21,0,0,0,.16.38,1.72,1.72,0,0,1,1.82.37,1.37,1.37,0,0,1,.5,1.4A.21.21,0,0,0,83.75,77.56Z"/><path class="cls-1" d="M71,78.29l-.6.39a10.15,10.15,0,0,1-3.54,1.78,3,3,0,0,1-2.79-.79A1.48,1.48,0,0,1,64,78.08a.17.17,0,0,0-.08-.22.16.16,0,0,0-.21.08,1.83,1.83,0,0,0,.11,1.92,2.89,2.89,0,0,0,2.38,1,4.51,4.51,0,0,0,.72,0A10.21,10.21,0,0,0,70.58,79l.61-.39a.17.17,0,0,0,0-.23A.16.16,0,0,0,71,78.29Z"/><path class="cls-2" d="M4.85,69.84A3.91,3.91,0,0,0,3.68,70a3.75,3.75,0,0,0,.15-1.08c0-.93-.28-1.69-.62-1.69S2.6,68,2.6,68.93a3.91,3.91,0,0,0,.13,1,4,4,0,0,0-1-.13c-.93,0-1.68.27-1.68.61s.75.62,1.68.62a4,4,0,0,0,1-.13,3.51,3.51,0,0,0-.13,1c0,.93.27,1.68.61,1.68s.61-.75.61-1.68a3.7,3.7,0,0,0-.14-1.07,3.93,3.93,0,0,0,1.18.17c.93,0,1.68-.27,1.68-.61S5.78,69.84,4.85,69.84Z"/><path class="cls-3" d="M63.73,84.19a3.61,3.61,0,0,0-1.17.17,3.75,3.75,0,0,0,.15-1.08c0-.94-.28-1.69-.62-1.69s-.61.75-.61,1.69a4,4,0,0,0,.13,1,3.66,3.66,0,0,0-1-.14c-.93,0-1.68.28-1.68.62s.75.61,1.68.61a4,4,0,0,0,1-.13,3.59,3.59,0,0,0-.14,1c0,.93.28,1.69.62,1.69s.61-.76.61-1.69a3.75,3.75,0,0,0-.14-1.07,3.57,3.57,0,0,0,1.18.18c.93,0,1.68-.28,1.68-.62S64.66,84.19,63.73,84.19Z"/><path class="cls-4" d="M123.89,69.84a3.79,3.79,0,0,0-1.16.17,3.78,3.78,0,0,0,.14-1.08c0-.93-.27-1.69-.61-1.69s-.62.76-.62,1.69a3.91,3.91,0,0,0,.13,1,4,4,0,0,0-1-.13c-.93,0-1.68.27-1.68.61s.75.62,1.68.62a4,4,0,0,0,1-.13,3.88,3.88,0,0,0-.13,1c0,.93.27,1.68.61,1.68s.62-.75.62-1.68a4.09,4.09,0,0,0-.14-1.07,3.81,3.81,0,0,0,1.17.17c.93,0,1.68-.27,1.68-.61S124.82,69.84,123.89,69.84Z"/></g></g></g></svg>